<?xml version="1.0" encoding="UTF-8" standalone="no"?>
<!-- Created with Inkscape (http://www.inkscape.org/) -->

<svg
   width="220"
   height="220"
   id="svg2"
   version="1.1"
   inkscape:version="1.4.2 (f4327f4, 2025-05-13)"
   sodipodi:docname="highlighter.svg"
   inkscape:export-xdpi="112.65798"
   inkscape:export-ydpi="112.65798"
   xmlns:inkscape="http://www.inkscape.org/namespaces/inkscape"
   xmlns:sodipodi="http://sodipodi.sourceforge.net/DTD/sodipodi-0.dtd"
   xmlns:xlink="http://www.w3.org/1999/xlink"
   xmlns="http://www.w3.org/2000/svg"
   xmlns:svg="http://www.w3.org/2000/svg"
   xmlns:rdf="http://www.w3.org/1999/02/22-rdf-syntax-ns#"
   xmlns:cc="http://creativecommons.org/ns#"
   xmlns:dc="http://purl.org/dc/elements/1.1/">
  <defs
     id="defs4">
    <radialGradient
       inkscape:collect="always"
       xlink:href="#linearGradient11961"
       id="radialGradient12116"
       gradientUnits="userSpaceOnUse"
       gradientTransform="matrix(2.4749084,-0.37023031,0.03212005,0.21471555,-1231.7411,1195.3014)"
       cx="1118.9208"
       cy="400.64731"
       fx="1118.9208"
       fy="400.64731"
       r="98.085815" />
    <linearGradient
       inkscape:collect="always"
       id="linearGradient11961">
      <stop
         style="stop-color:#000000;stop-opacity:1"
         offset="0"
         id="stop11963" />
      <stop
         style="stop-color:#000000;stop-opacity:0;"
         offset="1"
         id="stop11965" />
    </linearGradient>
    <radialGradient
       inkscape:collect="always"
       xlink:href="#linearGradient11961"
       id="radialGradient12118"
       gradientUnits="userSpaceOnUse"
       gradientTransform="matrix(2.4749084,-0.37023031,0.03212005,0.21471555,-1231.7411,1195.3014)"
       cx="1118.9208"
       cy="400.64731"
       fx="1118.9208"
       fy="400.64731"
       r="98.085815" />
    <radialGradient
       inkscape:collect="always"
       xlink:href="#linearGradient11961"
       id="radialGradient12120"
       gradientUnits="userSpaceOnUse"
       gradientTransform="matrix(2.4749084,-0.37023031,0.03212005,0.21471555,-1695.8228,674.56706)"
       cx="1118.9208"
       cy="400.64731"
       fx="1118.9208"
       fy="400.64731"
       r="98.085815" />
    <radialGradient
       inkscape:collect="always"
       xlink:href="#linearGradient11961"
       id="radialGradient12122"
       gradientUnits="userSpaceOnUse"
       gradientTransform="matrix(2.4749084,-0.37023031,0.03212005,0.21471555,-1231.7411,1195.3014)"
       cx="1118.9208"
       cy="400.64731"
       fx="1118.9208"
       fy="400.64731"
       r="98.085815" />
    <radialGradient
       inkscape:collect="always"
       xlink:href="#linearGradient11961"
       id="radialGradient12124"
       gradientUnits="userSpaceOnUse"
       gradientTransform="matrix(2.4749084,-0.37023031,0.03212005,0.21471555,-1231.7411,1195.3014)"
       cx="1118.9208"
       cy="400.64731"
       fx="1118.9208"
       fy="400.64731"
       r="98.085815" />
    <radialGradient
       inkscape:collect="always"
       xlink:href="#linearGradient11932"
       id="radialGradient12126"
       gradientUnits="userSpaceOnUse"
       gradientTransform="matrix(1.2048155,-0.01953983,0.00189853,0.18006125,-255.44838,298.27006)"
       cx="1253.9388"
       cy="319.47867"
       fx="1253.9388"
       fy="319.47867"
       r="60.606102" />
    <linearGradient
       inkscape:collect="always"
       id="linearGradient11932">
      <stop
         style="stop-color:#000000;stop-opacity:1;"
         offset="0"
         id="stop11934" />
      <stop
         style="stop-color:#000000;stop-opacity:0;"
         offset="1"
         id="stop11936" />
    </linearGradient>
    <linearGradient
       inkscape:collect="always"
       xlink:href="#linearGradient4174"
       id="linearGradient12165"
       gradientUnits="userSpaceOnUse"
       x1="-1020.8906"
       y1="-2184.5679"
       x2="-1020.2155"
       y2="-2191.6423" />
    <linearGradient
       id="linearGradient4174"
       inkscape:collect="always">
      <stop
         id="stop4176"
         offset="0"
         style="stop-color:#aad400;stop-opacity:1;" />
      <stop
         id="stop4178"
         offset="1"
         style="stop-color:#89a02c;stop-opacity:1" />
    </linearGradient>
    <linearGradient
       inkscape:collect="always"
       xlink:href="#linearGradient3361"
       id="linearGradient12162"
       gradientUnits="userSpaceOnUse"
       gradientTransform="translate(-1341.4624,1113.5528)"
       x1="1684.4146"
       y1="739.3053"
       x2="1684.4146"
       y2="664.27991" />
    <linearGradient
       id="linearGradient3361"
       inkscape:collect="always">
      <stop
         id="stop3363"
         offset="0"
         style="stop-color:#000000;stop-opacity:1" />
      <stop
         id="stop3365"
         offset="1"
         style="stop-color:#4d4d4d;stop-opacity:1" />
    </linearGradient>
    <linearGradient
       inkscape:collect="always"
       xlink:href="#linearGradient3361-7"
       id="linearGradient12159"
       gradientUnits="userSpaceOnUse"
       gradientTransform="rotate(-56.234201,1967.6705,3.3085128)"
       x1="1119.4253"
       y1="199.68761"
       x2="1119.4253"
       y2="171.3074" />
    <linearGradient
       id="linearGradient3361-7"
       inkscape:collect="always">
      <stop
         id="stop3363-4"
         offset="0"
         style="stop-color:#000000;stop-opacity:1" />
      <stop
         id="stop3365-0"
         offset="1"
         style="stop-color:#4d4d4d;stop-opacity:1" />
    </linearGradient>
    <linearGradient
       id="linearGradient4224"
       inkscape:collect="always">
      <stop
         id="stop4226"
         offset="0"
         style="stop-color:#b3df00;stop-opacity:1;" />
      <stop
         id="stop4228"
         offset="1"
         style="stop-color:#728f00;stop-opacity:1" />
    </linearGradient>
    <radialGradient
       inkscape:collect="always"
       xlink:href="#linearGradient11932"
       id="radialGradient4673"
       gradientUnits="userSpaceOnUse"
       gradientTransform="matrix(1,0,0,0.18007664,0,273.57768)"
       cx="1293.1624"
       cy="333.66251"
       fx="1293.1624"
       fy="333.66251"
       r="60.606102" />
    <linearGradient
       inkscape:collect="always"
       xlink:href="#linearGradient4224"
       id="linearGradient4675"
       gradientUnits="userSpaceOnUse"
       x1="1440.0673"
       y1="330.50873"
       x2="1442.1443"
       y2="340.93854" />
    <linearGradient
       id="linearGradient259">
      <stop
         id="stop260"
         offset="0.0000000"
         style="stop-color:#fafafa;stop-opacity:1.0000000;" />
      <stop
         id="stop261"
         offset="1.0000000"
         style="stop-color:#bbbbbb;stop-opacity:1.0000000;" />
    </linearGradient>
    <linearGradient
       id="linearGradient269">
      <stop
         id="stop270"
         offset="0.0000000"
         style="stop-color:#a3a3a3;stop-opacity:1.0000000;" />
      <stop
         id="stop271"
         offset="1.0000000"
         style="stop-color:#4c4c4c;stop-opacity:1.0000000;" />
    </linearGradient>
    <linearGradient
       id="linearGradient15662">
      <stop
         id="stop15664"
         offset="0.0000000"
         style="stop-color:#ffffff;stop-opacity:1.0000000;" />
      <stop
         id="stop15666"
         offset="1.0000000"
         style="stop-color:#f8f8f8;stop-opacity:1.0000000;" />
    </linearGradient>
    <radialGradient
       id="aigrd2"
       cx="20.892099"
       cy="114.5684"
       r="5.256"
       fx="20.892099"
       fy="114.5684"
       gradientUnits="userSpaceOnUse">
      <stop
         offset="0"
         style="stop-color:#F0F0F0"
         id="stop15566" />
      <stop
         offset="1.0000000"
         style="stop-color:#9a9a9a;stop-opacity:1.0000000;"
         id="stop15568" />
    </radialGradient>
    <radialGradient
       id="aigrd3"
       cx="20.892099"
       cy="64.567902"
       r="5.257"
       fx="20.892099"
       fy="64.567902"
       gradientUnits="userSpaceOnUse">
      <stop
         offset="0"
         style="stop-color:#F0F0F0"
         id="stop15573" />
      <stop
         offset="1.0000000"
         style="stop-color:#9a9a9a;stop-opacity:1.0000000;"
         id="stop15575" />
    </radialGradient>
  </defs>
  <sodipodi:namedview
     id="base"
     pagecolor="#ffffff"
     bordercolor="#666666"
     borderopacity="1.0"
     inkscape:pageopacity="0.0"
     inkscape:pageshadow="2"
     inkscape:zoom="0.98233551"
     inkscape:cx="2.0359643"
     inkscape:cy="73.803705"
     inkscape:document-units="px"
     inkscape:current-layer="layer1"
     showgrid="false"
     inkscape:window-width="2560"
     inkscape:window-height="1369"
     inkscape:window-x="-8"
     inkscape:window-y="-8"
     inkscape:window-maximized="1"
     fit-margin-top="0"
     fit-margin-left="0"
     fit-margin-right="0"
     fit-margin-bottom="0"
     inkscape:snap-bbox="true"
     inkscape:showpageshadow="2"
     inkscape:pagecheckerboard="0"
     inkscape:deskcolor="#d1d1d1" />
  <g
     inkscape:groupmode="layer"
     id="layer3"
     inkscape:label="Paper"
     transform="translate(14.539485,11.136873)" />
  <g
     inkscape:label="Marker"
     inkscape:groupmode="layer"
     id="layer1"
     transform="translate(-503.96585,-556.95675)">
    <g
       id="g4677"
       transform="matrix(0.91204198,0,0,0.91204198,77.606704,55.968392)">
      <g
         transform="matrix(0.57560047,0,0,0.57560047,-393.85779,242.88083)"
         id="g11946">
        <ellipse
           style="color:#000000;display:inline;overflow:visible;visibility:visible;fill:url(#radialGradient4673);fill-opacity:1;fill-rule:nonzero;stroke:none;stroke-width:0.30000001;marker:none;enable-background:accumulate"
           id="path11930"
           transform="matrix(1.1685824,0,0,0.87234043,245.61285,560.54308)"
           cx="1293.1624"
           cy="333.66251"
           rx="60.606102"
           ry="10.913743" />
        <g
           id="g11909"
           transform="matrix(0.82750362,0,0,0.82750362,216.48769,106.44982)">
          <path
             sodipodi:nodetypes="ccccccccc"
             inkscape:connector-curvature="0"
             id="path11623"
             transform="translate(464.08166,520.73435)"
             d="m 1453.5663,325.97373 -60.6601,-0.005 c -1.0007,0.006 -1.9847,0.082 -2.9374,0.25 l -49.25,8.6875 c 0.9527,-0.16803 1.9367,-0.27493 2.9374,-0.28125 l 60.8126,-0.375 c 9.5697,-0.0604 17.1911,7.89916 17.0937,17.46875 l 49.0975,-8.27627 c 0.097,-9.56959 -7.5239,-17.52915 -17.0937,-17.46875 z"
             style="color:#000000;visibility:visible;fill:url(#linearGradient4675);fill-opacity:1;fill-rule:nonzero;stroke:none;stroke-width:0.30000001;marker:none" />
          <path
             sodipodi:nodetypes="ccccccc"
             inkscape:connector-curvature="0"
             id="path11627"
             transform="translate(464.08166,520.73435)"
             d="m 1470.66,342.34967 -49.0975,9.13173 -0.2187,19.7061 c -0.085,8.41381 -6.1052,15.44068 -14.0626,16.84375 l 49.1288,-13.14632 c 7.9573,-1.40307 13.9773,-8.42994 14.0626,-16.84375 z"
             style="color:#000000;visibility:visible;fill:#728f00;fill-opacity:1;fill-rule:nonzero;stroke:none;stroke-width:0.30000001;marker:none" />
          <path
             sodipodi:nodetypes="sssssssss"
             inkscape:connector-curvature="0"
             id="rect4265"
             d="m 1807.7324,855.37329 60.8072,-0.38393 c 9.5698,-0.0604 17.1951,7.88 17.0977,17.44959 l -0.1985,19.48002 c -0.097,9.5696 -7.8829,17.35203 -17.4495,17.09769 l -60.7868,-1.61607 c -9.2126,-0.24492 -16.5587,-7.58829 -16.4648,-16.80364 l 0.1911,-18.7589 c 0.094,-9.21535 7.588,-16.40657 16.8036,-16.46476 z"
             style="color:#000000;display:inline;overflow:visible;visibility:visible;fill:#88aa00;fill-opacity:1;fill-rule:nonzero;stroke:none;stroke-width:0.30000001;marker:none;enable-background:accumulate" />
          <path
             style="color:#000000;display:inline;overflow:visible;visibility:visible;fill:none;stroke:#d4ff2a;stroke-width:0.98799998;stroke-miterlimit:4;stroke-dasharray:none;stroke-opacity:1;marker:none;enable-background:accumulate"
             d="m 1811.3297,862.4149 53.8657,-0.31237 c 8.4774,-0.0492 13.6887,4.19603 13.5946,12.67476 l -0.1915,17.25946 c -0.094,8.47874 -5.3978,12.62462 -13.8724,12.41771 l -53.8484,-1.31476 c -8.1611,-0.19927 -13.146,-3.9373 -13.0549,-12.13854 l 0.1854,-16.69459 c 0.091,-8.20122 5.1579,-11.84432 13.3215,-11.89167 z"
             id="path11899"
             inkscape:connector-curvature="0"
             sodipodi:nodetypes="sssssssss" />
          <path
             sodipodi:nodetypes="sssssssss"
             inkscape:connector-curvature="0"
             id="path11901"
             d="m 1810.5829,861.35862 53.8657,-0.31237 c 8.4774,-0.0492 13.6887,4.19602 13.5946,12.67475 l -0.1915,17.25947 c -0.094,8.47873 -5.3978,12.62462 -13.8724,12.41771 l -53.8484,-1.31477 c -8.1611,-0.19926 -13.146,-3.93729 -13.0549,-12.13854 l 0.1854,-16.69458 c 0.091,-8.20123 5.1579,-11.84433 13.3215,-11.89167 z"
             style="color:#000000;display:inline;overflow:visible;visibility:visible;fill:none;stroke:#668000;stroke-width:1.78799999;stroke-miterlimit:4;stroke-dasharray:none;stroke-opacity:1;marker:none;enable-background:accumulate" />
        </g>
      </g>
      <g
         transform="matrix(0.57560047,0,0,0.57560047,-399.20147,271.02199)"
         id="g12175">
        <g
           id="g12043"
           transform="translate(-8.2891427,-0.78944169)"
           style="opacity:0.53597125">
          <path
             style="opacity:0.2;fill:url(#radialGradient12116);fill-opacity:1;stroke:none"
             d="m 1784.3005,818.54685 c -32.9661,3.10707 -65.1565,11.91742 -97.3508,19.43143 -19.8163,4.95186 -39.608,10.01057 -59.3055,15.41232 -1.5109,6.74155 10.2538,0.94129 14.5584,2.18888 55.7771,-3.97549 111.7221,-7.24598 167.3791,-11.90763 4.6701,-0.2873 11.676,-4.13415 8.5625,-9.71875 -6.4951,-11.02789 -21.4917,-15.91897 -33.8437,-15.40625 z"
             id="path12045"
             inkscape:connector-curvature="0" />
          <path
             style="opacity:0.2;fill:url(#radialGradient12118);fill-opacity:1;stroke:none"
             d="m 1784.2379,817.7031 c -31.6618,2.95531 -62.5207,11.32553 -93.4255,18.48049 -21.3718,5.3029 -42.7076,10.80065 -63.9182,16.51951 -3.1757,7.55799 5.6833,3.71777 10.1061,4.07904 57.5645,-4.11676 115.2083,-7.44127 172.7064,-12.29779 4.9798,-0.45405 12.1554,-4.24015 9.4375,-10.25 -5.3321,-10.35418 -17.6034,-14.91876 -28.5392,-16.43011 -2.1103,-0.28523 -4.247,-0.23697 -6.3671,-0.10114 z"
             id="path12053"
             inkscape:connector-curvature="0" />
          <path
             transform="translate(464.08166,520.73435)"
             inkscape:connector-curvature="0"
             id="path12061"
             d="m 1162.0588,331.33449 c 0,0 138.1523,-37.89322 164.2039,-35.13017 26.0516,2.76305 44.2088,26.44631 15.7889,28.81464 -28.4199,2.36832 -180.7823,12.63107 -180.7823,12.63107 z"
             style="opacity:0.2;fill:url(#radialGradient12120);fill-opacity:1;stroke:none" />
          <path
             style="opacity:0.2;fill:url(#radialGradient12122);fill-opacity:1;stroke:none"
             d="m 1784.1755,816.0781 c -31.4983,2.86851 -62.197,11.18188 -92.9376,18.28125 -22.0187,5.44742 -43.9925,11.08907 -65.8437,17.0625 -1.1802,5.21369 -1.9691,9.94325 4.9697,7.44396 59.871,-4.26571 119.8173,-7.75817 179.624,-12.75646 5.579,-0.62062 12.8582,-4.52828 11.125,-11.1875 -3.8378,-10.46137 -15.3493,-15.476 -25.4626,-17.9556 -3.7545,-0.8445 -7.6301,-1.19909 -11.4748,-0.88815 z"
             id="path12063"
             inkscape:connector-curvature="0" />
          <path
             style="opacity:0.2;fill:url(#radialGradient12124);fill-opacity:1;stroke:none"
             d="m 1784.1129,815.23435 c -35.8605,3.48151 -70.8192,13.21949 -105.8208,21.51771 -17.9216,4.52287 -35.817,9.14903 -53.6479,14.01354 -1.345,6.11757 -2.1807,11.6986 5.8321,8.94055 59.8809,-4.28561 119.8726,-7.72479 179.6679,-12.7843 6.3434,-0.52964 14.1939,-5.68209 11.5625,-12.9375 -5.368,-12.02721 -19.5117,-17.31012 -31.8438,-18.75 -1.9092,-0.17839 -3.8385,-0.11507 -5.75,0 z"
             id="path12071"
             inkscape:connector-curvature="0" />
        </g>
        <ellipse
           transform="matrix(0.56356884,0,0,0.47397202,900.10556,699.60976)"
           id="path11942"
           style="color:#000000;display:inline;overflow:visible;visibility:visible;fill:url(#radialGradient12126);fill-opacity:1;fill-rule:nonzero;stroke:none;stroke-width:0.30000001;marker:none;enable-background:accumulate"
           cx="1293.1624"
           cy="333.66251"
           rx="60.606102"
           ry="10.913743" />
        <rect
           ry="10.044136"
           transform="rotate(-56.234201)"
           y="1774.3743"
           x="545.94757"
           height="74.352974"
           width="24.194221"
           id="rect3359"
           style="color:#000000;display:inline;overflow:visible;visibility:visible;fill:#aad400;fill-opacity:1;fill-rule:nonzero;stroke:none;stroke-width:0.30000001;marker:none;enable-background:accumulate" />
        <rect
           ry="3.5609634"
           transform="matrix(0.55579949,-0.83131638,-0.99999913,-0.00132175,0,0)"
           y="-2191.5747"
           x="-1030.2725"
           height="26.063669"
           width="34.816074"
           id="rect3354"
           style="color:#000000;display:inline;overflow:visible;visibility:visible;fill:url(#linearGradient12165);fill-opacity:1;fill-rule:nonzero;stroke:none;stroke-width:0.30000001;marker:none;enable-background:accumulate" />
        <rect
           transform="rotate(-56.234201)"
           ry="10.044136"
           y="1766.4648"
           x="273.06149"
           height="91.155258"
           width="284.46729"
           id="rect3346"
           style="color:#000000;display:inline;overflow:visible;visibility:visible;fill:url(#linearGradient12162);fill-opacity:1;fill-rule:nonzero;stroke:none;stroke-width:0.30000001;marker:none;enable-background:accumulate" />
        <path
           inkscape:connector-curvature="0"
           id="rect3348"
           d="m 1629.3724,760.52727 c 0,0 -0.4357,18.41881 -10.1668,32.97383 -9.7313,14.5551 -11.4782,34.87897 -11.4782,34.87897 -0.2621,1.64103 0.369,3.78985 1.6398,5.30649 3.0222,0.68718 6.9418,2.46097 10.9052,5.11081 3.7958,2.53784 6.8496,5.3725 8.6742,7.8292 1.7177,0.41382 3.6369,0.15047 5.0712,-0.66934 0,0 17.9476,-9.13342 27.8447,-23.93667 9.897,-14.80308 26.5853,-21.99679 26.5853,-21.99679 0.047,-0.0698 0.07,-0.15453 0.113,-0.22517 l -59.0235,-39.46177 c -0.049,0.0673 -0.1184,0.12108 -0.1648,0.19049 z"
           style="color:#000000;display:inline;overflow:visible;visibility:visible;fill:url(#linearGradient12159);fill-opacity:1;fill-rule:nonzero;stroke:none;stroke-width:0.30000001;marker:none;enable-background:accumulate" />
        <g
           transform="matrix(1.0789354,0.06840679,-0.14010643,0.91795653,-67.493691,-79.615118)"
           id="g4225">
          <path
             inkscape:connector-curvature="0"
             id="path4227"
             d="m 1794.2692,518.54685 c -2.5052,0.28287 -4.6196,2.65184 -5.8125,4.65625 0.6186,1.26039 1.6875,-1.7504 2.4688,-2 1.4001,-2.2659 4.0765,-2.98726 6.125,-1.15625 3.4709,1.84646 6.8712,3.84535 10.2812,5.8125 -4.1544,-2.3282 -8.1991,-5.72272 -12.5312,-7.3125 -0.6041,0.43734 -0.055,-0.35298 -0.5313,0 z"
             style="opacity:0.2;fill:#ffffff;stroke:none" />
          <path
             inkscape:connector-curvature="0"
             id="path4231"
             d="m 1794.2379,518.29685 c -2.3803,0.0266 -3.7904,2.29997 -5.4374,3.71875 -0.8652,0.39822 -0.7818,2.04905 0.1874,1.90625 1.4497,-1.68768 2.7827,-3.85066 4.9063,-4.65625 2.3555,0.018 4.322,1.97081 6.4488,2.89222 6.8198,3.86339 13.5634,7.83672 20.2699,11.88903 -8.4035,-5.31702 -16.6129,-10.92468 -25.25,-15.71875 -0.3742,-0.0308 -0.7498,-0.11363 -1.125,-0.0312 z"
             style="opacity:0.2;fill:#ffffff;stroke:none" />
          <path
             style="opacity:0.2;fill:#ffffff;stroke:none"
             d="m 1328.1186,-2.2518219 c 0,0 -4.244,3.5739465 -4.3185,4.3929759 -0.074,0.8190294 0.8935,1.8614305 1.3402,1.1913155 0.3223,-0.4833976 2.3954,-3.01675867 3.8994,-4.18735427 0.581,-0.45215493 1.1404,-0.32089853 1.3871,-0.35453603 1.638,-0.2233717 42.3409,24.7191908 42.3409,24.7191908 0,0 -39.8094,-25.9849636 -41.4474,-26.2083352 -1.6381,-0.2233717 -3.2017,0.4467433 -3.2017,0.4467433 z"
             id="path4235"
             inkscape:connector-curvature="0"
             transform="translate(464.08166,520.73435)"
             sodipodi:nodetypes="cccsscsc" />
          <path
             inkscape:connector-curvature="0"
             id="path4237"
             d="m 1794.1755,517.73435 c -2.7062,0.0624 -4.3153,2.62487 -6.0938,4.28125 -1.1704,0.80846 0.059,3.16311 1.2812,2.3125 1.3887,-1.56569 2.664,-3.64347 4.5938,-4.5 2.3305,0.17438 4.2654,2.02617 6.376,2.96441 12.287,6.95592 24.284,14.39578 36.374,21.69184 1.4862,-0.22233 -2.0088,-1.79166 -2.6849,-2.41708 -12.5542,-8.03466 -24.9625,-16.35469 -37.7526,-23.95792 -0.629,-0.37643 -1.3699,-0.47147 -2.0937,-0.375 z"
             style="opacity:0.2;fill:#ffffff;stroke:none" />
          <path
             inkscape:connector-curvature="0"
             id="path4241"
             d="m 1794.4255,517.4531 c -3.1482,0.0754 -5.5176,2.9592 -7.0938,5.34375 -0.2894,1.71614 2.2001,2.96211 2.875,0.90625 1.523,-1.68746 3.4716,-5.12672 5.9607,-2.87903 13.6592,7.42815 27.0219,15.82551 40.4143,23.87903 2.9429,-0.43286 -4.0443,-3.58191 -5.4011,-4.83417 -11.8878,-7.48027 -23.4767,-15.57788 -35.7239,-22.38458 -0.3318,0.0424 -0.6856,-0.14247 -1.0312,-0.0312 z"
             style="opacity:0.2;fill:#ffffff;stroke:none" />
        </g>
        <g
           style="opacity:0.75899281"
           transform="translate(0,0.61776453)"
           id="g4245">
          <path
             inkscape:connector-curvature="0"
             id="path4247"
             d="m 1781.2379,527.98435 c -4.2769,0.70122 -5.4372,6.08021 -8.1266,8.98683 -48.048,70.98973 -96.2076,141.93007 -144.1858,212.95067 -0.9254,1.14274 -0.4385,4.80827 1.4687,3.0625 49.5186,-73.36656 98.6679,-147.03938 148.125,-220.4375 1.8618,-2.77589 5.7461,-3.19204 8.2762,-0.84208 4.1267,2.17652 8.2534,4.35305 12.3801,6.52958 -5.7101,-3.31967 -11.168,-7.38112 -17.0313,-10.25 -0.2993,-0.0462 -0.6069,-0.0462 -0.9063,0 z"
             style="opacity:0.2;fill:#ffffff;stroke:none" />
          <path
             inkscape:connector-curvature="0"
             id="path4251"
             d="m 1781.2067,527.7031 c -3.4357,0.33693 -4.7159,4.17386 -6.6491,6.60718 -48.5924,71.74554 -97.2144,143.49097 -145.7884,215.23657 -0.5106,1.28914 -1.1096,3.54884 0.4687,4.21875 1.988,-0.21576 2.7058,-2.85823 3.9301,-4.24945 48.4909,-72.22247 96.9913,-144.49998 145.4762,-216.68805 1.4019,-1.90617 4.1264,-3.36837 6.3235,-1.77145 7.0068,3.69465 14.0135,7.3893 21.0202,11.08395 -7.7099,-4.78616 -15.4072,-9.61636 -23.125,-14.375 -0.5512,-0.0341 -1.1039,-0.15494 -1.6562,-0.0625 z"
             style="opacity:0.2;fill:#ffffff;stroke:none" />
          <path
             transform="translate(464.08166,520.73435)"
             style="opacity:0.2;fill:#ffffff;stroke:none"
             d="m 1318.8438,6.75 c -0.9703,-0.1346578 -1.8779,-0.1544089 -2.75,0.125 -0.9118,0.2921125 -1.8375,0.8912623 -2.8438,2.15625 -0.011,0.013602 -0.02,0.017495 -0.031,0.03125 l -148.7466,219.58547 c -0.7705,1.74642 -0.8377,3.64023 0.059,4.32078 0.3131,0.61932 1.6231,0.53674 2.7754,-1.05307 L 1314.75,12.28125 c 0.029,-0.03369 0.06,-0.06507 0.094,-0.09375 0.5836,-0.613594 1.221,-1.31149 2.0624,-1.78125 0.8415,-0.4697599 1.9606,-0.6822896 3.0626,-0.25 0.021,0.0095 0.042,0.01998 0.062,0.03125 l 28.5626,15.0625 -29.75,-18.5 z"
             id="path4255"
             inkscape:connector-curvature="0"
             sodipodi:nodetypes="ccccccccccccccc" />
          <path
             inkscape:connector-curvature="0"
             id="path4257"
             d="m 1781.1442,527.1406 c -3.7294,0.38856 -5.1025,4.43471 -7.1471,7.05362 -48.5618,71.70089 -97.1532,143.40168 -145.6966,215.10263 -0.7803,1.57135 -1.1438,4.37139 0.8437,5.03125 2.5366,-0.14482 3.2816,-3.28353 4.7678,-4.95617 48.4069,-72.08208 96.7609,-144.20771 145.2009,-216.26258 1.3118,-1.8119 3.9077,-3.00376 5.848,-1.42439 9.1965,4.8498 18.393,9.69959 27.5896,14.54939 1.5129,-0.18517 -2.0514,-1.74779 -2.7547,-2.35661 -8.9453,-5.55242 -17.899,-11.15088 -26.8391,-16.67464 -0.6032,-0.0416 -1.2079,-0.1523 -1.8125,-0.0625 z"
             style="opacity:0.2;fill:#ffffff;stroke:none" />
          <path
             inkscape:connector-curvature="0"
             id="path4261"
             d="m 1781.1129,526.85935 c -5.0254,0.85326 -6.4671,6.96067 -9.525,10.36615 -47.8373,70.65213 -95.7426,141.27752 -143.5374,211.94635 -1.2294,1.7829 -0.861,6.17763 2.0937,5.28125 3.5659,-2.6643 5.2613,-7.60047 8.1564,-11.08956 47.0091,-70.01535 94.0279,-140.08574 141.0311,-210.06669 1.601,-2.49503 4.8215,-2.64231 6.9944,-0.59112 8.9037,4.53287 17.6405,9.64737 26.6479,13.81876 1.0694,-1.31033 -4.8204,-3.58025 -6.5561,-5.07505 -7.8147,-4.83087 -15.5925,-9.75317 -23.43,-14.52759 -0.6232,-0.044 -1.25,-0.15451 -1.875,-0.0625 z"
             style="opacity:0.2;fill:#ffffff;stroke:none" />
        </g>
      </g>
    </g>
  </g>
  <metadata
     id="metadata6547">
    <rdf:RDF>
      <cc:Work>
        <dc:format>image/svg+xml</dc:format>
        <dc:type
           rdf:resource="http://purl.org/dc/dcmitype/StillImage" />
        <cc:license
           rdf:resource="http://creativecommons.org/publicdomain/zero/1.0/" />
        <dc:publisher>
          <cc:Agent
             rdf:about="http://openclipart.org/">
            <dc:title>Open Clip Art Library</dc:title>
          </cc:Agent>
        </dc:publisher>
        <dc:title>Textmarker</dc:title>
        <dc:date>2011-08-05T17:45:34</dc:date>
        <dc:description />
        <dc:source>http://openclipart.org/detail/153817/textmarker-by-chrisdesign</dc:source>
        <dc:creator>
          <cc:Agent>
            <dc:title>Chrisdesign</dc:title>
          </cc:Agent>
        </dc:creator>
        <dc:subject>
          <rdf:Bag>
            <rdf:li>clip art</rdf:li>
            <rdf:li>clipart</rdf:li>
            <rdf:li>green</rdf:li>
            <rdf:li>office</rdf:li>
            <rdf:li>pen</rdf:li>
            <rdf:li>textmarker</rdf:li>
          </rdf:Bag>
        </dc:subject>
      </cc:Work>
      <cc:License
         rdf:about="http://creativecommons.org/publicdomain/zero/1.0/">
        <cc:permits
           rdf:resource="http://creativecommons.org/ns#Reproduction" />
        <cc:permits
           rdf:resource="http://creativecommons.org/ns#Distribution" />
        <cc:permits
           rdf:resource="http://creativecommons.org/ns#DerivativeWorks" />
      </cc:License>
    </rdf:RDF>
  </metadata>
</svg>
